{"title":"The.Collection.2012.CAM.XViD-UNiQUE","uid":7926985,"size":1485904253,"categoryP":"video","categoryS":"movies","magnet":"?xt=urn:btih:8412bb538f34044212deddd6b2f3ec3ed8110874&amp;dn=The.Collection.2012.CAM.XViD-UNiQUE&amp;tr=udp%3A%2F%2Ftracker.openbittorrent.com%3A80&amp;tr=udp%3A%2F%2Fopen.demonii.com%3A1337&amp;tr=udp%3A%2F%2Ftracker.coppersurfer.tk%3A6969&amp;tr=udp%3A%2F%2Fexodus.desync.com%3A6969","seeders":0,"leechers":1,"uploader":"Acesn8s","files":-1,"time":1355601735,"description":"SILVERTORRENT Clean Verified Torrent Downloads\n                                   &lt;a href=&quot;\nhttp://silvertorrent.org/&quot; rel=&quot;nofollow&quot; target=&quot;_NEW&quot;&gt;\nhttp://silvertorrent.org/&lt;/a&gt; __________________ http://silvertorrent.org/\n\n----------------------------------------------------------------------------------\n &lt;a href=&quot;\nhttp://www.aullidos.com/imagenes/caratulas-minis/the-collection.jpg[/IMG]&quot; rel=&quot;nofollow&quot; target=&quot;_NEW&quot;&gt;\nhttp://www.aullidos.com/imagenes/caratulas-minis/the-collection.jpg[/IMG]&lt;/a&gt;\n\n[[.....Why be the same as everyone else when YOU can be UNiQUE.....]]            \n\n\n\nRelease Name                             : The.Collection.2012.CAM.XViD-UNiQUE\nFormat                                   : AVI\nFormat/Info                              : Audio Video Interleave\nFile size                                : 1.37 GiB\nDuration                                 : 1h 13mn\nOverall bit rate                         : 2 671 Kbps\nWriting application                      : VirtualDubMod 1.5.10.2 (build 2540/release)\nWriting library                          : VirtualDubMod build 2540/release\n\nVideo\nID                                       : 0\nFormat                                   : MPEG-4 Visual\nFormat profile                           : Advanced Simple@L5\nFormat settings, BVOP                    : 2\nFormat settings, QPel                    : No\nFormat settings, GMC                     : No warppoints\nFormat settings, Matrix                  : Default (H.263)\nMuxing mode                              : Packed bitstream\nCodec ID                                 : XVID\nCodec ID/Hint                            : XviD\nDuration                                 : 1h 13mn\nBit rate                                 : 2 531 Kbps\nWidth                                    : 672 pixels\nHeight                                   : 338 pixels\nDisplay aspect ratio                     : 1.988\nFrame rate                               : 29.970 fps\nColor space                              : YUV\nChroma subsampling                       : 4:2:0\nBit depth                                : 8 bits\nScan type                                : Progressive\nCompression mode                         : Lossy\nBits/(Pixel*Frame)                       : 0.372\nStream size                              : 1.29 GiB (95%)\nWriting library                          : XviD 64\n\nAudio\nID                                       : 1\nFormat                                   : MPEG Audio\nFormat version                           : Version 1\nFormat profile                           : Layer 3\nCodec ID                                 : 55\nCodec ID/Hint                            : MP3\nDuration                                 : 1h 13mn\nBit rate mode                            : Constant\nBit rate                                 : 128 Kbps\nChannel(s)                               : 2 channels\nSampling rate                            : 48.0 KHz\nCompression mode                         : Lossy\nStream size                              : 67.1 MiB (5%)\nAlignment                                : Split accross interleaves\nInterleave, duration                     : 33 ms (1.00 video frame)\nInterleave, preload duration             : 500 ms\n &lt;a href=&quot;\nhttp://www.imdb.com/title/tt1748227/&quot; rel=&quot;nofollow&quot; target=&quot;_NEW&quot;&gt;\nhttp://www.imdb.com/title/tt1748227/&lt;/a&gt;\n\nRatings: 6.9/10 from 1,981 users   Metascore: 36/100\nReviews: 24 user | 43 critic | 15 from Metacritic.com\n\nA man who escapes from the vicious grips of the serial killer known as &quot;The Collector&quot; is blackmailed to rescue an innocent girl from the killer's booby-trapped warehouse.\n\nDirector:\nMarcus Dunstan\nWriters:\nPatrick Melton, Marcus Dunstan, and 2 more credits Â»\nStars:\nJosh Stewart, Emma Fitzpatrick and Christopher McDonald | See full cast and crew\n\n\nSource Used ur mum............................................Thanks\n\nBeen awhile since did a cam so had a go at this ...............corrected AR totally reworked vid and colours and filtered the cam audio ..........more than watchable :)\n\nScreens:\n &lt;a href=&quot;\nhttp://silvertorrent.org/index.php?page=torrent-details&amp;id=8412bb538f34044212deddd6b2f3ec3ed8110874&quot; rel=&quot;nofollow&quot; target=&quot;_NEW&quot;&gt;\nhttp://silvertorrent.org/index.php?page=torrent-details&amp;id=8412bb538f34044212deddd6b2f3ec3ed8110874&lt;/a&gt;","torrent":{"xt":"urn:btih:8412bb538f34044212deddd6b2f3ec3ed8110874","amp;dn":"The.Collection.2012.CAM.XViD-UNiQUE","amp;tr":["udp%3A%2F%2Ftracker.openbittorrent.com%3A80","udp%3A%2F%2Fopen.demonii.com%3A1337","udp%3A%2F%2Ftracker.coppersurfer.tk%3A6969","udp%3A%2F%2Fexodus.desync.com%3A6969"],"infoHash":"8412bb538f34044212deddd6b2f3ec3ed8110874","infoHashBuffer":{"type":"Buffer","data":[132,18,187,83,143,52,4,66,18,222,221,214,178,243,236,62,216,17,8,116]},"announce":[],"urlList":[]}}